<?xml version="1.0" encoding="UTF-8"?>
<!-- Created with Inkscape (http://www.inkscape.org/) -->
<svg width="50.476mm" height="43.89mm" version="1.1" viewBox="0 0 50.476 43.89" xmlns="http://www.w3.org/2000/svg">
 <g transform="translate(-71.78 -42.112)">
  <path d="m91.927 63.81h10.18c0.94064 0 1.6979 0.75727 1.6979 1.6979v1.1294c0 0.94064-0.75726 1.6979-1.6979 1.6979h-10.18c-0.94064 0-1.6979-0.75727-1.6979-1.6979v-1.1294c0-0.94064 0.75727-1.6979 1.6979-1.6979zm-17.138-20.11h44.455c0.7882 0 1.4227 0.63453 1.4227 1.4227v9.3124c0 0.78819-0.63453 1.4227-1.4227 1.4227h-44.455c-0.78819 0-1.4227-0.63453-1.4227-1.4227v-9.3124c0-0.78819 0.63453-1.4227 1.4227-1.4227zm4.0649 12.729h36.325v27.986h-36.325z" fill="none" stroke="#000" stroke-width="3.175"/>
 </g>
</svg>
