<svg width="18.167" height="30" xmlns="http://www.w3.org/2000/svg"><g color="#000"><path d="M46.411 51.77a4.868 4.868 0 0 0 0 6.9L67.11 79.369c1.911 1.91 4.988 1.91 6.9 0s1.91-4.989 0-6.9L56.76 55.22l17.25-17.249c1.91-1.911 1.91-4.988 0-6.9s-4.989-1.91-6.9 0z" style="-inkscape-stroke:none" transform="translate(-25.339 -16.569) scale(.5717)"/><path d="M70.561 28.982c-1.418 0-2.837.54-3.918 1.621l-20.699 20.7a5.541 5.541 0 0 0 0 7.833l20.699 20.7a5.541 5.541 0 0 0 7.834 0 5.541 5.541 0 0 0 0-7.835l-16.781-16.78 16.781-16.782a5.544 5.544 0 0 0 0-7.836 5.519 5.519 0 0 0-3.916-1.62zm0 1.313c1.076 0 2.152.414 2.982 1.244a4.194 4.194 0 0 1 0 5.964L55.826 55.22l17.717 17.717a4.192 4.192 0 0 1 0 5.963 4.194 4.194 0 0 1-5.964 0l-20.7-20.697a4.194 4.194 0 0 1 0-5.965l20.7-20.698a4.204 4.204 0 0 1 2.982-1.245z" style="-inkscape-stroke:none" transform="translate(-25.339 -16.569) scale(.5717)"/></g></svg>