<svg
   width="210.18399"
   height="65.175293"
   viewBox="0 0 210.18399 65.175292"
   version="1.1"
   id="svg1"
   xml:space="preserve"
   xmlns="http://www.w3.org/2000/svg"
   xmlns:svg="http://www.w3.org/2000/svg"><defs
     id="defs1" /><g
     id="g42"
     style="display:inline"
     transform="translate(-32.942398,-32.784154)"><g
       style="clip-rule:evenodd;fill-rule:evenodd;stroke-width:0.654834;stroke-linejoin:round;stroke-miterlimit:2"
       id="g1"
       transform="matrix(1.5271046,0,0,1.5271046,23.533907,23.376427)"><path
         d="m 38.17,48.8395 v -3.557 h 3.556 v 3.557 z m -7.113,0 v -3.557 h 3.556 v 3.557 z M 6.161,41.7265 v -7.113 h 3.557 v -3.557 h 10.669 v -3.557 h 3.557 v -3.556 H 27.5 v -3.557 h 3.557 V 9.7175 h 3.556 v -3.557 h 7.113 v 3.557 H 38.17 v 7.113 h 7.113 v -3.557 h 3.556 v 7.113 h -3.556 v 3.557 h -10.67 v 3.556 h -3.556 v 3.557 H 27.5 v 3.557 h -3.556 v 10.669 h -3.557 v 3.557 h -7.113 v -3.557 h 3.557 v -7.113 H 9.718 v 3.557 z m 7.113,-17.783 v -3.557 h 3.557 v 3.557 z m -7.113,0 v -3.557 h 3.557 v 3.557 z m 35.565,21.339 v -3.556 h 3.557 v 3.556 z m -3.556,0 h -3.557 v -3.556 h 3.557 z m 7.113,-3.556 v -3.557 h 3.556 v 3.557 z m -3.557,0 H 38.17 v -3.557 h 3.556 z m -7.113,0 h -3.556 v -3.557 h 3.556 z m 10.67,-3.557 h -3.557 v -3.556 h 3.557 z m -7.113,0 h -3.557 v -3.556 h 3.557 z m 7.113,-3.556 v -3.557 h 3.556 v 3.557 z m -3.557,0 H 38.17 v -3.557 h 3.556 z M 16.831,20.3865 v -3.556 h 3.556 v 3.556 z m -3.557,0 H 9.718 v -3.556 h 3.556 z m 7.113,-3.556 v -3.557 h 3.557 v 3.557 z m -3.556,0 h -3.557 v -3.557 h 3.557 z m -7.113,0 H 6.161 v -3.557 h 3.557 z m 10.669,-3.557 h -3.556 v -3.556 h 3.556 z m -7.113,0 H 9.718 v -3.556 h 3.556 z m 7.113,-3.556 v -3.557 h 3.557 v 3.557 z m -3.556,0 h -3.557 v -3.557 h 3.557 z"
         style="clip-rule:evenodd;fill:#da3538;fill-rule:evenodd;stroke-width:0.654834;stroke-linejoin:round;stroke-miterlimit:2"
         id="path1" /><text
         xml:space="preserve"
         style="font-style:normal;font-variant:normal;font-weight:normal;font-stretch:normal;font-size:24.4471px;font-family:HoudiniPixel;-inkscape-font-specification:HoudiniPixel;fill:#da3538;fill-opacity:1;stroke-width:2.55582;stroke-linecap:round"
         x="59.759716"
         y="36.667667"
         id="text1"><tspan
           id="tspan1"
           x="59.759716"
           y="36.667667"
           style="font-size:24.4471px;fill:#da3538;fill-opacity:1;stroke-width:2.55582">hacklab</tspan></text></g></g></svg>
