<!-- Created with Inkscape (http://www.inkscape.org/) -->
<svg width="100%" height="100%" version="1.1" viewBox="0 0 33.502 34.617" xml:space="preserve" xmlns="http://www.w3.org/2000/svg"><g transform="translate(-1321.6 -236.47)"><g transform="matrix(1.4055 0 0 1.4055 601.33 -306.2)"><path d="m521.7 409.43c0.2524-0.0676 0.5145-0.20532 0.7739-0.41755l4.4139-4.2001 5.9227 1.4304c0.3306 0.0541 0.6266 0.0423 0.8788-0.0253 0.7821-0.20956 1.1477-0.95661 0.8425-1.9486l-2.2072-5.5373 2.7958-4.9969c0.5195-1.2711-0.1723-2.3001-1.5457-2.2985l-5.9842 0.61546-3.8988-4.4185c-0.5236-0.46869-1.1007-0.62034-1.6062-0.48491-0.4826 0.12931-0.8988 0.51982-1.1402 1.1456l-1.5517 5.9538-5.0077 2.2858c-1.1776 0.70619-1.2523 1.9602-0.1669 2.8013l4.9194 2.9293 0.8571 5.8989c0.2319 1.0125 0.9223 1.4766 1.7045 1.267z" fill="#ffdb00" stroke="#000" stroke-width="2"/></g></g></svg>
